<mxfile host="app.diagrams.net" agent="Mozilla/5.0 (Windows NT 10.0; Win64; x64) AppleWebKit/537.36 (KHTML, like Gecko) Chrome/127.0.0.0 Safari/537.36 OPR/113.0.0.0" version="24.7.14">
  <diagram name="PÃ¡gina-1" id="OtzxL2xkk7ZxR9Ry71PF">
    <mxGraphModel grid="1" page="1" gridSize="10" guides="1" tooltips="1" connect="1" arrows="1" fold="1" pageScale="1" pageWidth="827" pageHeight="1169" math="0" shadow="0">
      <root>
        <mxCell id="0" />
        <mxCell id="1" parent="0" />
        <mxCell id="aKFApVmPosKBvD-4SY8B-1" value="Interfaz" style="shape=umlLifeline;perimeter=lifelinePerimeter;whiteSpace=wrap;html=1;container=1;collapsible=0;recursiveResize=0;outlineConnect=0;rounded=1;shadow=0;comic=0;labelBackgroundColor=none;strokeWidth=1;fontFamily=Verdana;fontSize=12;align=center;" vertex="1" parent="1">
          <mxGeometry x="400" y="40" width="100" height="560" as="geometry" />
        </mxCell>
        <mxCell id="aKFApVmPosKBvD-4SY8B-2" value="" style="html=1;points=[];perimeter=orthogonalPerimeter;rounded=0;shadow=0;comic=0;labelBackgroundColor=none;strokeWidth=1;fontFamily=Verdana;fontSize=12;align=center;" vertex="1" parent="aKFApVmPosKBvD-4SY8B-1">
          <mxGeometry x="45" y="100" width="10" height="20" as="geometry" />
        </mxCell>
        <mxCell id="aKFApVmPosKBvD-4SY8B-3" value="" style="html=1;points=[];perimeter=orthogonalPerimeter;rounded=0;shadow=0;comic=0;labelBackgroundColor=none;strokeWidth=1;fontFamily=Verdana;fontSize=12;align=center;" vertex="1" parent="aKFApVmPosKBvD-4SY8B-1">
          <mxGeometry x="45" y="130" width="10" height="30" as="geometry" />
        </mxCell>
        <mxCell id="aKFApVmPosKBvD-4SY8B-4" value="" style="html=1;points=[];perimeter=orthogonalPerimeter;rounded=0;shadow=0;comic=0;labelBackgroundColor=none;strokeWidth=1;fontFamily=Verdana;fontSize=12;align=center;" vertex="1" parent="aKFApVmPosKBvD-4SY8B-1">
          <mxGeometry x="45" y="320" width="10" height="30" as="geometry" />
        </mxCell>
        <mxCell id="aKFApVmPosKBvD-4SY8B-5" value="" style="html=1;points=[];perimeter=orthogonalPerimeter;rounded=0;shadow=0;comic=0;labelBackgroundColor=none;strokeWidth=1;fontFamily=Verdana;fontSize=12;align=center;" vertex="1" parent="aKFApVmPosKBvD-4SY8B-1">
          <mxGeometry x="45" y="200" width="10" height="20" as="geometry" />
        </mxCell>
        <mxCell id="aKFApVmPosKBvD-4SY8B-30" value="" style="html=1;points=[];perimeter=orthogonalPerimeter;rounded=0;shadow=0;comic=0;labelBackgroundColor=none;strokeWidth=1;fontFamily=Verdana;fontSize=12;align=center;" vertex="1" parent="aKFApVmPosKBvD-4SY8B-1">
          <mxGeometry x="45" y="390" width="10" height="30" as="geometry" />
        </mxCell>
        <mxCell id="aKFApVmPosKBvD-4SY8B-38" value="" style="html=1;points=[];perimeter=orthogonalPerimeter;rounded=0;shadow=0;comic=0;labelBackgroundColor=none;strokeWidth=1;fontFamily=Verdana;fontSize=12;align=center;" vertex="1" parent="aKFApVmPosKBvD-4SY8B-1">
          <mxGeometry x="45" y="470" width="10" height="20" as="geometry" />
        </mxCell>
        <mxCell id="aKFApVmPosKBvD-4SY8B-6" value="Capa de negocio" style="shape=umlLifeline;perimeter=lifelinePerimeter;whiteSpace=wrap;html=1;container=1;collapsible=0;recursiveResize=0;outlineConnect=0;rounded=1;shadow=0;comic=0;labelBackgroundColor=none;strokeWidth=1;fontFamily=Verdana;fontSize=12;align=center;" vertex="1" parent="1">
          <mxGeometry x="600" y="40" width="100" height="560" as="geometry" />
        </mxCell>
        <mxCell id="aKFApVmPosKBvD-4SY8B-7" value="" style="html=1;points=[];perimeter=orthogonalPerimeter;rounded=0;shadow=0;comic=0;labelBackgroundColor=none;strokeWidth=1;fontFamily=Verdana;fontSize=12;align=center;" vertex="1" parent="aKFApVmPosKBvD-4SY8B-6">
          <mxGeometry x="45" y="220" width="10" height="40" as="geometry" />
        </mxCell>
        <mxCell id="aKFApVmPosKBvD-4SY8B-10" value="" style="html=1;points=[];perimeter=orthogonalPerimeter;rounded=0;shadow=0;comic=0;labelBackgroundColor=none;strokeWidth=1;fontFamily=Verdana;fontSize=12;align=center;" vertex="1" parent="aKFApVmPosKBvD-4SY8B-6">
          <mxGeometry x="45" y="290" width="10" height="30" as="geometry" />
        </mxCell>
        <mxCell id="aKFApVmPosKBvD-4SY8B-32" value="" style="html=1;points=[];perimeter=orthogonalPerimeter;rounded=0;shadow=0;comic=0;labelBackgroundColor=none;strokeWidth=1;fontFamily=Verdana;fontSize=12;align=center;" vertex="1" parent="aKFApVmPosKBvD-4SY8B-6">
          <mxGeometry x="45" y="420" width="10" height="20" as="geometry" />
        </mxCell>
        <mxCell id="aKFApVmPosKBvD-4SY8B-36" value="" style="html=1;points=[];perimeter=orthogonalPerimeter;rounded=0;shadow=0;comic=0;labelBackgroundColor=none;strokeWidth=1;fontFamily=Verdana;fontSize=12;align=center;" vertex="1" parent="aKFApVmPosKBvD-4SY8B-6">
          <mxGeometry x="45" y="460" width="10" height="10" as="geometry" />
        </mxCell>
        <mxCell id="aKFApVmPosKBvD-4SY8B-11" value="Base de datos" style="shape=umlLifeline;perimeter=lifelinePerimeter;whiteSpace=wrap;html=1;container=1;collapsible=0;recursiveResize=0;outlineConnect=0;rounded=1;shadow=0;comic=0;labelBackgroundColor=none;strokeWidth=1;fontFamily=Verdana;fontSize=12;align=center;" vertex="1" parent="1">
          <mxGeometry x="820" y="40" width="100" height="560" as="geometry" />
        </mxCell>
        <mxCell id="aKFApVmPosKBvD-4SY8B-12" value="" style="html=1;points=[];perimeter=orthogonalPerimeter;rounded=0;shadow=0;comic=0;labelBackgroundColor=none;strokeWidth=1;fontFamily=Verdana;fontSize=12;align=center;" vertex="1" parent="aKFApVmPosKBvD-4SY8B-11">
          <mxGeometry x="45" y="260" width="10" height="30" as="geometry" />
        </mxCell>
        <mxCell id="aKFApVmPosKBvD-4SY8B-34" value="" style="html=1;points=[];perimeter=orthogonalPerimeter;rounded=0;shadow=0;comic=0;labelBackgroundColor=none;strokeWidth=1;fontFamily=Verdana;fontSize=12;align=center;" vertex="1" parent="aKFApVmPosKBvD-4SY8B-11">
          <mxGeometry x="45" y="440" width="10" height="20" as="geometry" />
        </mxCell>
        <mxCell id="aKFApVmPosKBvD-4SY8B-13" value="Usuario" style="shape=umlLifeline;perimeter=lifelinePerimeter;whiteSpace=wrap;html=1;container=1;collapsible=0;recursiveResize=0;outlineConnect=0;rounded=1;shadow=0;comic=0;labelBackgroundColor=none;strokeWidth=1;fontFamily=Verdana;fontSize=12;align=center;" vertex="1" parent="1">
          <mxGeometry x="190" y="40" width="100" height="560" as="geometry" />
        </mxCell>
        <mxCell id="aKFApVmPosKBvD-4SY8B-14" value="" style="html=1;points=[];perimeter=orthogonalPerimeter;rounded=0;shadow=0;comic=0;labelBackgroundColor=none;strokeWidth=1;fontFamily=Verdana;fontSize=12;align=center;" vertex="1" parent="aKFApVmPosKBvD-4SY8B-13">
          <mxGeometry x="45" y="100" width="10" height="420" as="geometry" />
        </mxCell>
        <mxCell id="aKFApVmPosKBvD-4SY8B-15" value="1.-Seleccionar dispositivo" style="html=1;verticalAlign=bottom;endArrow=block;entryX=0;entryY=0;labelBackgroundColor=none;fontFamily=Verdana;fontSize=12;edgeStyle=elbowEdgeStyle;elbow=vertical;exitX=0.68;exitY=-0.003;exitDx=0;exitDy=0;exitPerimeter=0;" edge="1" parent="1">
          <mxGeometry relative="1" as="geometry">
            <mxPoint x="241.79999999999995" y="140" as="sourcePoint" />
            <mxPoint as="offset" />
            <mxPoint x="445" y="141.5" as="targetPoint" />
          </mxGeometry>
        </mxCell>
        <mxCell id="aKFApVmPosKBvD-4SY8B-19" value="3.-Ingresa dispositivo" style="html=1;verticalAlign=bottom;endArrow=block;labelBackgroundColor=none;fontFamily=Verdana;fontSize=12;edgeStyle=elbowEdgeStyle;elbow=vertical;exitX=0.96;exitY=0.118;exitDx=0;exitDy=0;exitPerimeter=0;" edge="1" parent="1">
          <mxGeometry x="-0.041" y="-20" relative="1" as="geometry">
            <mxPoint x="244.60000000000002" y="170.01" as="sourcePoint" />
            <mxPoint x="449.5" y="170" as="targetPoint" />
            <mxPoint as="offset" />
          </mxGeometry>
        </mxCell>
        <mxCell id="aKFApVmPosKBvD-4SY8B-20" value="9.-Despliegue de datos&amp;nbsp;" style="html=1;verticalAlign=bottom;endArrow=block;labelBackgroundColor=none;fontFamily=Verdana;fontSize=12;edgeStyle=elbowEdgeStyle;elbow=vertical;exitX=0.105;exitY=0.983;exitDx=0;exitDy=0;exitPerimeter=0;entryX=1.033;entryY=0.033;entryDx=0;entryDy=0;entryPerimeter=0;" edge="1" parent="1" source="aKFApVmPosKBvD-4SY8B-10" target="aKFApVmPosKBvD-4SY8B-4">
          <mxGeometry relative="1" as="geometry">
            <mxPoint x="640" y="360" as="sourcePoint" />
            <Array as="points">
              <mxPoint x="565.4" y="361" />
            </Array>
            <mxPoint x="510" y="361" as="targetPoint" />
          </mxGeometry>
        </mxCell>
        <mxCell id="aKFApVmPosKBvD-4SY8B-21" value="2.-Despliegue dispositivos" style="html=1;verticalAlign=bottom;endArrow=block;labelBackgroundColor=none;fontFamily=Verdana;fontSize=12;edgeStyle=elbowEdgeStyle;elbow=vertical;exitX=-0.08;exitY=1;exitDx=0;exitDy=0;exitPerimeter=0;" edge="1" parent="1" source="aKFApVmPosKBvD-4SY8B-2" target="aKFApVmPosKBvD-4SY8B-14">
          <mxGeometry x="0.0028" y="1" relative="1" as="geometry">
            <mxPoint x="454.6700000000001" y="161.09000000000003" as="sourcePoint" />
            <mxPoint x="270" y="160" as="targetPoint" />
            <mxPoint as="offset" />
            <Array as="points">
              <mxPoint x="340" y="160" />
            </Array>
          </mxGeometry>
        </mxCell>
        <mxCell id="aKFApVmPosKBvD-4SY8B-22" value="4.-Muestra dispositivo" style="html=1;verticalAlign=bottom;endArrow=block;labelBackgroundColor=none;fontFamily=Verdana;fontSize=12;edgeStyle=elbowEdgeStyle;elbow=vertical;exitX=-0.04;exitY=1;exitDx=0;exitDy=0;exitPerimeter=0;entryX=1.048;entryY=0.143;entryDx=0;entryDy=0;entryPerimeter=0;" edge="1" parent="1" source="aKFApVmPosKBvD-4SY8B-3" target="aKFApVmPosKBvD-4SY8B-14">
          <mxGeometry x="-0.0497" y="20" relative="1" as="geometry">
            <mxPoint x="449.00000000000006" y="201.09000000000003" as="sourcePoint" />
            <mxPoint x="260" y="200" as="targetPoint" />
            <mxPoint as="offset" />
            <Array as="points">
              <mxPoint x="260" y="200" />
            </Array>
          </mxGeometry>
        </mxCell>
        <mxCell id="aKFApVmPosKBvD-4SY8B-23" value="5.-Seleccionar dispositivos" style="html=1;verticalAlign=bottom;endArrow=block;labelBackgroundColor=none;fontFamily=Verdana;fontSize=12;edgeStyle=elbowEdgeStyle;elbow=vertical;entryX=-0.08;entryY=0;entryDx=0;entryDy=0;entryPerimeter=0;exitX=1.014;exitY=0.24;exitDx=0;exitDy=0;exitPerimeter=0;" edge="1" parent="1" source="aKFApVmPosKBvD-4SY8B-14" target="aKFApVmPosKBvD-4SY8B-5">
          <mxGeometry relative="1" as="geometry">
            <mxPoint x="300" y="240" as="sourcePoint" />
            <mxPoint as="offset" />
            <mxPoint x="410" y="240" as="targetPoint" />
            <Array as="points">
              <mxPoint x="340" y="240" />
            </Array>
          </mxGeometry>
        </mxCell>
        <mxCell id="aKFApVmPosKBvD-4SY8B-24" value="6.-Dispositivo ingresado" style="html=1;verticalAlign=bottom;endArrow=block;labelBackgroundColor=none;fontFamily=Verdana;fontSize=12;edgeStyle=elbowEdgeStyle;elbow=vertical;exitX=1.057;exitY=0.321;exitDx=0;exitDy=0;exitPerimeter=0;entryX=0.071;entryY=0.043;entryDx=0;entryDy=0;entryPerimeter=0;" edge="1" parent="1">
          <mxGeometry x="-0.0013" relative="1" as="geometry">
            <mxPoint x="449.99999999999994" y="260.5" as="sourcePoint" />
            <mxPoint as="offset" />
            <mxPoint x="645.71" y="260.86" as="targetPoint" />
            <Array as="points">
              <mxPoint x="544.4300000000001" y="260" />
            </Array>
          </mxGeometry>
        </mxCell>
        <mxCell id="aKFApVmPosKBvD-4SY8B-25" value="7.-Busca info. dispositivo" style="html=1;verticalAlign=bottom;endArrow=block;labelBackgroundColor=none;fontFamily=Verdana;fontSize=12;edgeStyle=elbowEdgeStyle;elbow=vertical;exitX=0.933;exitY=1.017;exitDx=0;exitDy=0;exitPerimeter=0;entryX=-0.067;entryY=0;entryDx=0;entryDy=0;entryPerimeter=0;" edge="1" parent="1" source="aKFApVmPosKBvD-4SY8B-7" target="aKFApVmPosKBvD-4SY8B-12">
          <mxGeometry x="0.0096" relative="1" as="geometry">
            <mxPoint x="656" y="280" as="sourcePoint" />
            <mxPoint as="offset" />
            <mxPoint x="855.5699999999999" y="280.84999999999997" as="targetPoint" />
          </mxGeometry>
        </mxCell>
        <mxCell id="aKFApVmPosKBvD-4SY8B-26" value="10.-Opciones dispositivos" style="html=1;verticalAlign=bottom;endArrow=block;labelBackgroundColor=none;fontFamily=Verdana;fontSize=12;edgeStyle=elbowEdgeStyle;elbow=vertical;exitX=0.343;exitY=1.014;exitDx=0;exitDy=0;exitPerimeter=0;entryX=0.957;entryY=0.597;entryDx=0;entryDy=0;entryPerimeter=0;" edge="1" parent="1" source="aKFApVmPosKBvD-4SY8B-4" target="aKFApVmPosKBvD-4SY8B-14">
          <mxGeometry x="0.0003" relative="1" as="geometry">
            <mxPoint x="414" y="440.05" as="sourcePoint" />
            <Array as="points">
              <mxPoint x="350" y="390" />
            </Array>
            <mxPoint x="260" y="390" as="targetPoint" />
            <mxPoint as="offset" />
          </mxGeometry>
        </mxCell>
        <mxCell id="aKFApVmPosKBvD-4SY8B-27" value="8.-Dispositivo encontrado" style="html=1;verticalAlign=bottom;endArrow=block;labelBackgroundColor=none;fontFamily=Verdana;fontSize=12;edgeStyle=elbowEdgeStyle;elbow=vertical;exitX=0;exitY=1.011;exitDx=0;exitDy=0;exitPerimeter=0;entryX=0.867;entryY=0.033;entryDx=0;entryDy=0;entryPerimeter=0;" edge="1" parent="1" source="aKFApVmPosKBvD-4SY8B-12" target="aKFApVmPosKBvD-4SY8B-10">
          <mxGeometry x="0.3668" y="-10" relative="1" as="geometry">
            <mxPoint x="857" y="329" as="sourcePoint" />
            <Array as="points">
              <mxPoint x="782.4" y="330" />
            </Array>
            <mxPoint x="700" y="330" as="targetPoint" />
            <mxPoint as="offset" />
          </mxGeometry>
        </mxCell>
        <mxCell id="aKFApVmPosKBvD-4SY8B-29" value="11.-Seleccionar opciÃ³n" style="html=1;verticalAlign=bottom;endArrow=block;labelBackgroundColor=none;fontFamily=Verdana;fontSize=12;edgeStyle=elbowEdgeStyle;elbow=vertical;entryX=0.071;entryY=-0.019;entryDx=0;entryDy=0;entryPerimeter=0;exitX=0.843;exitY=0.69;exitDx=0;exitDy=0;exitPerimeter=0;" edge="1" parent="1" source="aKFApVmPosKBvD-4SY8B-14" target="aKFApVmPosKBvD-4SY8B-30">
          <mxGeometry relative="1" as="geometry">
            <mxPoint x="250" y="430" as="sourcePoint" />
            <mxPoint as="offset" />
            <mxPoint x="429" y="430" as="targetPoint" />
            <Array as="points">
              <mxPoint x="325" y="430" />
            </Array>
          </mxGeometry>
        </mxCell>
        <mxCell id="aKFApVmPosKBvD-4SY8B-31" value="12.-Enviar informaciÃ³n" style="html=1;verticalAlign=bottom;endArrow=block;labelBackgroundColor=none;fontFamily=Verdana;fontSize=12;edgeStyle=elbowEdgeStyle;elbow=vertical;exitX=0.643;exitY=1.029;exitDx=0;exitDy=0;exitPerimeter=0;entryX=0.5;entryY=0.044;entryDx=0;entryDy=0;entryPerimeter=0;" edge="1" parent="1" source="aKFApVmPosKBvD-4SY8B-30" target="aKFApVmPosKBvD-4SY8B-32">
          <mxGeometry relative="1" as="geometry">
            <mxPoint x="460" y="461" as="sourcePoint" />
            <mxPoint as="offset" />
            <mxPoint x="618" y="460" as="targetPoint" />
            <Array as="points" />
          </mxGeometry>
        </mxCell>
        <mxCell id="aKFApVmPosKBvD-4SY8B-33" value="13.-Enviar los cambios" style="html=1;verticalAlign=bottom;endArrow=block;labelBackgroundColor=none;fontFamily=Verdana;fontSize=12;edgeStyle=elbowEdgeStyle;elbow=vertical;exitX=0.5;exitY=1;exitDx=0;exitDy=0;exitPerimeter=0;entryX=0.186;entryY=0.043;entryDx=0;entryDy=0;entryPerimeter=0;" edge="1" parent="1" source="aKFApVmPosKBvD-4SY8B-32" target="aKFApVmPosKBvD-4SY8B-34">
          <mxGeometry relative="1" as="geometry">
            <mxPoint x="660" y="480" as="sourcePoint" />
            <mxPoint as="offset" />
            <mxPoint x="840" y="480" as="targetPoint" />
            <Array as="points" />
          </mxGeometry>
        </mxCell>
        <mxCell id="aKFApVmPosKBvD-4SY8B-35" value="14.-Enviar los cambios" style="html=1;verticalAlign=bottom;endArrow=block;labelBackgroundColor=none;fontFamily=Verdana;fontSize=12;edgeStyle=elbowEdgeStyle;elbow=vertical;exitX=0.08;exitY=1.04;exitDx=0;exitDy=0;exitPerimeter=0;entryX=0.96;entryY=0.02;entryDx=0;entryDy=0;entryPerimeter=0;" edge="1" parent="1" source="aKFApVmPosKBvD-4SY8B-34" target="aKFApVmPosKBvD-4SY8B-36">
          <mxGeometry x="-0.0094" y="1" relative="1" as="geometry">
            <mxPoint x="861" y="500" as="sourcePoint" />
            <Array as="points" />
            <mxPoint x="660" y="500" as="targetPoint" />
            <mxPoint as="offset" />
          </mxGeometry>
        </mxCell>
        <mxCell id="aKFApVmPosKBvD-4SY8B-37" value="15.-Valida cambios" style="html=1;verticalAlign=bottom;endArrow=block;labelBackgroundColor=none;fontFamily=Verdana;fontSize=12;edgeStyle=elbowEdgeStyle;elbow=vertical;exitX=0.2;exitY=1.12;exitDx=0;exitDy=0;exitPerimeter=0;entryX=0.92;entryY=0.013;entryDx=0;entryDy=0;entryPerimeter=0;" edge="1" parent="1" source="aKFApVmPosKBvD-4SY8B-36" target="aKFApVmPosKBvD-4SY8B-38">
          <mxGeometry x="-0.0094" y="1" relative="1" as="geometry">
            <mxPoint x="645" y="510" as="sourcePoint" />
            <Array as="points" />
            <mxPoint x="500" y="510" as="targetPoint" />
            <mxPoint as="offset" />
          </mxGeometry>
        </mxCell>
        <mxCell id="aKFApVmPosKBvD-4SY8B-39" value="15.-Muestra los cambios" style="html=1;verticalAlign=bottom;endArrow=block;labelBackgroundColor=none;fontFamily=Verdana;fontSize=12;edgeStyle=elbowEdgeStyle;elbow=vertical;exitX=0.08;exitY=1.04;exitDx=0;exitDy=0;exitPerimeter=0;entryX=1.04;entryY=0.927;entryDx=0;entryDy=0;entryPerimeter=0;" edge="1" parent="1" source="aKFApVmPosKBvD-4SY8B-38" target="aKFApVmPosKBvD-4SY8B-14">
          <mxGeometry x="-0.0094" y="1" relative="1" as="geometry">
            <mxPoint x="443" y="531" as="sourcePoint" />
            <Array as="points" />
            <mxPoint x="250" y="530" as="targetPoint" />
            <mxPoint as="offset" />
          </mxGeometry>
        </mxCell>
      </root>
    </mxGraphModel>
  </diagram>
</mxfile>
